<svg width="74" height="24" viewBox="0 0 74 24" fill="none" xmlns="http://www.w3.org/2000/svg">
<path d="M4.64 10.64H11.38V13.16H4.64V10.64ZM4.88 16.4H12.5V19H1.66V5H12.24V7.6H4.88V16.4ZM15.478 19V5H18.158L26.418 15.08H25.118V5H28.318V19H25.658L17.378 8.92H18.678V19H15.478ZM38.7144 22.88V4.16H40.0344V22.88H38.7144ZM50.6277 19V5H55.8677C57.0543 5 58.0743 5.19333 58.9277 5.58C59.781 5.95333 60.4343 6.5 60.8877 7.22C61.3543 7.92667 61.5877 8.78667 61.5877 9.8C61.5877 10.7867 61.3543 11.64 60.8877 12.36C60.4343 13.0667 59.781 13.6133 58.9277 14C58.0743 14.3867 57.0543 14.58 55.8677 14.58H51.4477L52.1077 13.88V19H50.6277ZM52.1077 14L51.4477 13.28H55.8277C57.2277 13.28 58.2877 12.98 59.0077 12.38C59.741 11.7667 60.1077 10.9067 60.1077 9.8C60.1077 8.68 59.741 7.81333 59.0077 7.2C58.2877 6.58667 57.2277 6.28 55.8277 6.28H51.4477L52.1077 5.58V14ZM67.4391 19V6.28H62.5191V5H73.8391V6.28H68.9191V19H67.4391Z" fill="#CCD6F6"/>
</svg>
