<svg width="70" height="70" viewBox="0 0 70 70" fill="none" xmlns="http://www.w3.org/2000/svg">
<path d="M23.5074 46.07C24.9074 46.03 25.9374 45.51 26.5974 44.51C27.2774 43.51 27.6174 41.82 27.6174 39.44V22.94C27.6174 22.18 27.5574 21.63 27.4374 21.29C27.3174 20.95 27.0874 20.72 26.7474 20.6C26.4274 20.48 25.9074 20.4 25.1874 20.36V19.76C26.0274 19.82 27.2874 19.85 28.9674 19.85C30.6074 19.85 31.8974 19.82 32.8374 19.76V20.36C32.1174 20.4 31.5874 20.48 31.2474 20.6C30.9274 20.72 30.7074 20.95 30.5874 21.29C30.4674 21.63 30.4074 22.18 30.4074 22.94V33.92C30.4074 35.62 30.3774 37.13 30.3174 38.45C30.2574 39.75 30.1174 40.85 29.8974 41.75C29.5374 43.21 28.7974 44.39 27.6774 45.29C26.5774 46.19 25.1874 46.64 23.5074 46.64V46.07Z" fill="#CCD6F6"/>
<path d="M41.9888 34.56C42.7754 34.56 43.4221 34.6733 43.9288 34.9C44.4354 35.1133 44.9888 35.4333 45.5888 35.86C45.7621 35.9933 45.8954 36.06 45.9888 36.06C46.2421 36.06 46.4088 35.6533 46.4888 34.84H46.9488C46.8954 35.7067 46.8688 37.24 46.8688 39.44H46.4088C46.2888 38.7333 46.1621 38.1533 46.0288 37.7C45.8954 37.2333 45.6888 36.8267 45.4088 36.48C45.0221 36 44.5154 35.62 43.8888 35.34C43.2754 35.06 42.6288 34.92 41.9488 34.92C41.0688 34.92 40.2954 35.2067 39.6288 35.78C38.9621 36.3533 38.4488 37.1733 38.0888 38.24C37.7288 39.2933 37.5488 40.5267 37.5488 41.94C37.5488 44.34 37.9288 46.1 38.6888 47.22C39.4621 48.3267 40.6688 48.88 42.3088 48.88C43.1088 48.88 43.8021 48.6733 44.3888 48.26C44.6288 48.1 44.7821 47.9467 44.8488 47.8C44.9288 47.64 44.9688 47.4267 44.9688 47.16V45.24C44.9688 44.68 44.9154 44.2733 44.8088 44.02C44.7021 43.7667 44.5154 43.5933 44.2488 43.5C43.9821 43.4067 43.5488 43.3467 42.9488 43.32V42.92C43.6421 42.96 44.5821 42.98 45.7687 42.98C46.6754 42.98 47.3688 42.96 47.8488 42.92V43.32C47.5421 43.3467 47.3154 43.4 47.1688 43.48C47.0354 43.56 46.9421 43.7133 46.8888 43.94C46.8488 44.1667 46.8288 44.5333 46.8288 45.04V49H46.4288C46.4154 48.7333 46.3621 48.48 46.2688 48.24C46.1754 47.9867 46.0488 47.86 45.8888 47.86C45.8088 47.86 45.7288 47.88 45.6488 47.92C45.5688 47.96 45.4288 48.0533 45.2288 48.2C44.7621 48.56 44.2754 48.8267 43.7688 49C43.2754 49.1867 42.7221 49.28 42.1088 49.28C40.7354 49.28 39.5554 49 38.5688 48.44C37.5954 47.8667 36.8488 47.0467 36.3288 45.98C35.8088 44.9133 35.5488 43.64 35.5488 42.16C35.5488 40.64 35.8221 39.3067 36.3688 38.16C36.9288 37 37.6954 36.1133 38.6688 35.5C39.6421 34.8733 40.7488 34.56 41.9888 34.56Z" fill="#CCD6F6"/>
<circle cx="35" cy="35" r="34.5" stroke="#CCD6F6"/>
</svg>
