<svg width="60" height="60" viewBox="0 0 60 60" fill="none" xmlns="http://www.w3.org/2000/svg">
<path d="M47.5383 46.2117C47.7142 46.3876 47.813 46.6262 47.813 46.875C47.813 47.1238 47.7142 47.3624 47.5383 47.5383C47.3624 47.7142 47.1238 47.813 46.875 47.813C46.6262 47.813 46.3876 47.7142 46.2117 47.5383L30 31.3266L13.7883 47.5383C13.6124 47.7142 13.3738 47.813 13.125 47.813C12.8762 47.813 12.6376 47.7142 12.4617 47.5383C12.2858 47.3624 12.187 47.1238 12.187 46.875C12.187 46.6262 12.2858 46.3876 12.4617 46.2117L28.6734 30L12.4617 13.7883C12.2858 13.6124 12.187 13.3738 12.187 13.125C12.187 12.8762 12.2858 12.6376 12.4617 12.4617C12.6376 12.2858 12.8762 12.187 13.125 12.187C13.3738 12.187 13.6124 12.2858 13.7883 12.4617L30 28.6734L46.2117 12.4617C46.2988 12.3746 46.4022 12.3055 46.516 12.2584C46.6298 12.2112 46.7518 12.187 46.875 12.187C46.9982 12.187 47.1202 12.2112 47.234 12.2584C47.3478 12.3055 47.4512 12.3746 47.5383 12.4617C47.6254 12.5488 47.6945 12.6522 47.7416 12.766C47.7888 12.8798 47.813 13.0018 47.813 13.125C47.813 13.2482 47.7888 13.3702 47.7416 13.484C47.6945 13.5978 47.6254 13.7012 47.5383 13.7883L31.3266 30L47.5383 46.2117Z" fill="white"/>
</svg>
